<?xml version="1.0" encoding="utf-8"?>
<!-- Generator: Adobe Illustrator 21.0.2, SVG Export Plug-In . SVG Version: 6.00 Build 0)  -->
<svg version="1.1" id="Layer_1" xmlns="http://www.w3.org/2000/svg" xmlns:xlink="http://www.w3.org/1999/xlink" x="0px" y="0px"
	 viewBox="0 0 100 100.7" style="enable-background:new 0 0 100 100.7;" xml:space="preserve">
<g>
	<path d="M73.3,0L49.3,13.8L25.3,0L0,14.6v71.3l26.1,14.6l23.8-14l24.6,14.2l25.4-15V14.8L73.3,0z M97.5,84.3L74.6,97.8L49.9,83.6
		l-23.8,14L2.5,84.4l0-68.4L25.3,2.9l24,13.8L73.4,2.9l24.1,13.4V84.3z"/>
	<polygon points="9.1,20.8 94.5,70.2 93.8,20.8 77,11.1 76.9,40.3 26.2,11.1 	"/>
	<polygon points="26.5,89.5 43.9,79.6 26.1,69.7 	"/>
</g>
</svg>
